<?xml version="1.0" encoding="UTF-8" standalone="no"?>
<!DOCTYPE svg PUBLIC "-//W3C//DTD SVG 1.1//EN" "http://www.w3.org/Graphics/SVG/1.1/DTD/svg11.dtd">
<svg width="100%" height="100%" viewBox="0 0 400 107" version="1.1" xmlns="http://www.w3.org/2000/svg" xmlns:xlink="http://www.w3.org/1999/xlink" xml:space="preserve" xmlns:serif="http://www.serif.com/" style="fill-rule:evenodd;clip-rule:evenodd;stroke-linejoin:round;stroke-miterlimit:2;">
    <g id="NFC-Loading-System" serif:id="NFC Loading System" transform="matrix(1.66902,0,0,1.66963,-583.343,-267.14)">
        <path d="M367.334,222.823L365.14,222.823L365.14,221.322L352.177,221.322L352.177,222.823L349.983,222.823L349.983,203.975L367.334,203.975L367.334,222.823ZM365.14,219.076L365.14,206.222L352.177,206.222L352.177,219.076L365.14,219.076ZM393.295,213.753L373.039,213.753L373.039,211.495L393.295,211.495L393.295,213.753ZM418.343,206.673L416.659,207.406C416.366,206.022 415.979,204.903 415.496,204.049L417.263,203.304C417.714,204.216 418.074,205.339 418.343,206.673ZM411.583,205.977L399.438,205.977L399.438,203.719L411.583,203.719L411.583,205.977ZM415.639,207.674L413.966,208.394C413.666,207.019 413.279,205.904 412.804,205.05L414.571,204.305C415.022,205.217 415.378,206.34 415.639,207.674ZM417.37,212.13L408.748,212.13C408.764,212.325 408.772,212.659 408.772,213.131C408.772,218.103 406.649,221.643 402.403,223.751L400.684,221.749C402.613,221.049 404.073,219.987 405.066,218.563C406.058,217.139 406.554,215.426 406.554,213.424C406.554,212.838 406.538,212.406 406.507,212.13L397.09,212.13L397.09,209.871L417.37,209.871L417.37,212.13ZM438.03,206.002C436.219,208.232 434.788,209.79 433.737,210.677L433.737,220.577L431.72,220.577L431.72,212.325C429.783,213.814 427.921,214.95 426.134,215.731L424.889,213.9C427.016,213.037 429.172,211.725 431.359,209.963C433.545,208.201 435.227,206.421 436.405,204.622L438.03,206.002ZM454.716,207.027L453.412,208.98C451.451,207.28 449.142,206.095 446.486,205.428L447.826,203.377C450.625,204.419 452.922,205.636 454.716,207.027ZM465.651,209.579C462.86,213.818 460.093,216.874 457.349,218.746C454.606,220.618 451.502,222.054 448.039,223.055L446.652,220.797C450.984,219.836 454.459,218.302 457.076,216.195C459.693,214.087 461.97,211.34 463.908,207.955L465.651,209.579ZM490.616,204.378L488.943,205.099C488.643,203.715 488.255,202.6 487.781,201.754L489.548,200.997C489.999,201.908 490.355,203.036 490.616,204.378ZM487.923,205.379L486.927,205.88L487.852,206.82C487.196,210.856 485.797,214.219 483.654,216.909C481.511,219.598 478.455,221.794 474.486,223.495L472.814,221.395C476.427,220.134 479.26,218.435 481.312,216.298C483.363,214.162 484.733,211.438 485.421,208.126L476.384,208.126C474.842,210.38 473.32,212.004 471.818,212.996L470.051,211.397C473.308,209.176 475.696,206.002 477.214,201.876L479.301,202.926C478.843,204.016 478.349,205.001 477.819,205.88L486.204,205.88C485.895,204.586 485.52,203.544 485.077,202.755L486.856,201.998C487.307,202.909 487.662,204.037 487.923,205.379ZM504.93,204.879L504.147,207.149C502.029,205.896 499.566,205.123 496.759,204.83L497.542,202.498C500.657,203.166 503.12,203.959 504.93,204.879ZM514.418,209.749C512.18,213.403 509.662,216.286 506.863,218.398C504.064,220.51 500.688,222.111 496.735,223.202L495.62,220.894C499.74,219.91 503.173,218.386 505.92,216.323C508.668,214.26 510.872,211.552 512.532,208.199L514.418,209.749ZM502.618,211.178L501.764,213.546C499.898,212.203 497.47,211.361 494.482,211.019L495.265,208.748C498.261,209.326 500.712,210.136 502.618,211.178ZM539.881,221.676L537.983,223.104C535.643,219.816 532.907,217.183 529.776,215.206C527.238,218.477 524.127,221.248 520.443,223.519L518.747,221.725C521.807,220.072 524.501,217.912 526.829,215.243C529.158,212.573 530.974,209.558 532.279,206.197L520.111,206.197L520.111,204.049L534.342,204.024L534.995,204.72C534.109,207.918 532.797,210.811 531.057,213.399C534.433,215.613 537.374,218.372 539.881,221.676ZM560.671,205.977L545.17,205.977L545.17,203.719L560.671,203.719L560.671,205.977ZM563.102,212.13L554.48,212.13C554.496,212.325 554.504,212.659 554.504,213.131C554.504,218.103 552.381,221.643 548.135,223.751L546.415,221.749C548.345,221.049 549.805,219.987 550.798,218.563C551.79,217.139 552.286,215.426 552.286,213.424C552.286,212.838 552.27,212.406 552.238,212.13L542.822,212.13L542.822,209.871L563.102,209.871L563.102,212.13ZM587.841,221.944L585.683,222.872C585.39,221.83 584.955,220.707 584.378,219.503C576.219,220.349 570.712,221.057 567.858,221.627L567.277,219.198L570.064,218.88L576.385,202.425L578.401,203.231L572.495,218.551L583.109,217.354C581.757,214.75 580.504,212.858 579.35,211.678L581.603,210.677C583.769,213.477 585.849,217.232 587.841,221.944ZM350.45,195.937C349.933,195.937 349.513,195.517 349.513,195C349.513,194.483 349.933,194.063 350.45,194.063L587.75,194.063C588.267,194.063 588.687,194.483 588.687,195C588.687,195.517 588.267,195.937 587.75,195.937L350.45,195.937ZM350.45,160.375L355.625,160.375L359.637,176.088L359.712,176.088L359.712,160.375L363.387,160.375L363.387,186.625L359.15,186.625L354.2,167.463L354.125,167.463L354.125,186.625L350.45,186.625L350.45,160.375ZM366.462,160.375L377.375,160.375L377.375,164.125L370.587,164.125L370.587,171.438L375.912,171.438L375.912,175.188L370.587,175.188L370.587,186.625L366.462,186.625L366.462,160.375ZM385.175,187C383.2,187 381.694,186.438 380.656,185.313C379.619,184.188 379.1,182.6 379.1,180.55L379.1,166.45C379.1,164.4 379.619,162.812 380.656,161.687C381.694,160.563 383.2,160 385.175,160C387.15,160 388.656,160.563 389.694,161.687C390.731,162.812 391.25,164.4 391.25,166.45L391.25,169.225L387.35,169.225L387.35,166.188C387.35,164.563 386.662,163.75 385.287,163.75C383.912,163.75 383.225,164.563 383.225,166.188L383.225,180.85C383.225,182.45 383.912,183.25 385.287,183.25C386.662,183.25 387.35,182.45 387.35,180.85L387.35,176.838L391.25,176.838L391.25,180.55C391.25,182.6 390.731,184.188 389.694,185.313C388.656,186.438 387.15,187 385.175,187ZM399.725,160.375L403.85,160.375L403.85,182.875L410.637,182.875L410.637,186.625L399.725,186.625L399.725,160.375ZM418.437,187C416.412,187 414.862,186.425 413.787,185.275C412.712,184.125 412.175,182.5 412.175,180.4L412.175,166.6C412.175,164.5 412.712,162.875 413.787,161.725C414.862,160.575 416.412,160 418.437,160C420.462,160 422.012,160.575 423.087,161.725C424.162,162.875 424.7,164.5 424.7,166.6L424.7,180.4C424.7,182.5 424.162,184.125 423.087,185.275C422.012,186.425 420.462,187 418.437,187ZM418.437,183.25C419.862,183.25 420.575,182.388 420.575,180.663L420.575,166.337C420.575,164.613 419.862,163.75 418.437,163.75C417.012,163.75 416.3,164.613 416.3,166.337L416.3,180.663C416.3,182.388 417.012,183.25 418.437,183.25ZM430.587,160.375L436.175,160.375L440.45,186.625L436.325,186.625L435.575,181.413L435.575,181.487L430.887,181.487L430.137,186.625L426.312,186.625L430.587,160.375ZM435.087,177.925L433.25,164.95L433.175,164.95L431.375,177.925L435.087,177.925ZM442.437,160.375L448.737,160.375C450.787,160.375 452.325,160.925 453.35,162.025C454.375,163.125 454.887,164.737 454.887,166.863L454.887,180.137C454.887,182.263 454.375,183.875 453.35,184.975C452.325,186.075 450.787,186.625 448.737,186.625L442.437,186.625L442.437,160.375ZM448.662,182.875C449.337,182.875 449.856,182.675 450.219,182.275C450.581,181.875 450.762,181.225 450.762,180.325L450.762,166.675C450.762,165.775 450.581,165.125 450.219,164.725C449.856,164.325 449.337,164.125 448.662,164.125L446.562,164.125L446.562,182.875L448.662,182.875ZM457.662,160.375L461.787,160.375L461.787,186.625L457.662,186.625L457.662,160.375ZM464.862,160.375L470.037,160.375L474.05,176.088L474.125,176.088L474.125,160.375L477.8,160.375L477.8,186.625L473.562,186.625L468.612,167.463L468.537,167.463L468.537,186.625L464.862,186.625L464.862,160.375ZM486.725,187C484.725,187 483.2,186.431 482.15,185.294C481.1,184.156 480.575,182.525 480.575,180.4L480.575,166.6C480.575,164.475 481.1,162.844 482.15,161.706C483.2,160.569 484.725,160 486.725,160C488.725,160 490.25,160.569 491.3,161.706C492.35,162.844 492.875,164.475 492.875,166.6L492.875,168.85L488.975,168.85L488.975,166.337C488.975,164.613 488.262,163.75 486.837,163.75C485.412,163.75 484.7,164.613 484.7,166.337L484.7,180.7C484.7,182.4 485.412,183.25 486.837,183.25C488.262,183.25 488.975,182.4 488.975,180.7L488.975,175.563L486.912,175.563L486.912,171.812L492.875,171.812L492.875,180.4C492.875,182.525 492.35,184.156 491.3,185.294C490.25,186.431 488.725,187 486.725,187ZM506.9,187C504.9,187 503.387,186.431 502.362,185.294C501.337,184.156 500.825,182.525 500.825,180.4L500.825,178.9L504.725,178.9L504.725,180.7C504.725,182.4 505.437,183.25 506.862,183.25C507.562,183.25 508.094,183.044 508.456,182.631C508.819,182.219 509,181.55 509,180.625C509,179.525 508.75,178.556 508.25,177.719C507.75,176.881 506.825,175.875 505.475,174.7C503.775,173.2 502.587,171.844 501.912,170.631C501.237,169.419 500.9,168.05 500.9,166.525C500.9,164.45 501.425,162.844 502.475,161.706C503.525,160.569 505.05,160 507.05,160C509.025,160 510.519,160.569 511.531,161.706C512.544,162.844 513.05,164.475 513.05,166.6L513.05,167.688L509.15,167.688L509.15,166.337C509.15,165.438 508.975,164.781 508.625,164.369C508.275,163.956 507.762,163.75 507.087,163.75C505.712,163.75 505.025,164.588 505.025,166.263C505.025,167.213 505.281,168.1 505.794,168.925C506.306,169.75 507.237,170.75 508.587,171.925C510.312,173.425 511.5,174.788 512.15,176.012C512.8,177.238 513.125,178.675 513.125,180.325C513.125,182.475 512.594,184.125 511.531,185.275C510.469,186.425 508.925,187 506.9,187ZM519.05,175.45L514.062,160.375L518.45,160.375L521.262,170.012L521.337,170.012L524.15,160.375L528.162,160.375L523.175,175.45L523.175,186.625L519.05,186.625L519.05,175.45ZM534.8,187C532.8,187 531.287,186.431 530.262,185.294C529.237,184.156 528.725,182.525 528.725,180.4L528.725,178.9L532.625,178.9L532.625,180.7C532.625,182.4 533.337,183.25 534.762,183.25C535.462,183.25 535.994,183.044 536.356,182.631C536.719,182.219 536.9,181.55 536.9,180.625C536.9,179.525 536.65,178.556 536.15,177.719C535.65,176.881 534.725,175.875 533.375,174.7C531.675,173.2 530.487,171.844 529.812,170.631C529.137,169.419 528.8,168.05 528.8,166.525C528.8,164.45 529.325,162.844 530.375,161.706C531.425,160.569 532.95,160 534.95,160C536.925,160 538.419,160.569 539.431,161.706C540.444,162.844 540.95,164.475 540.95,166.6L540.95,167.688L537.05,167.688L537.05,166.337C537.05,165.438 536.875,164.781 536.525,164.369C536.175,163.956 535.662,163.75 534.987,163.75C533.612,163.75 532.925,164.588 532.925,166.263C532.925,167.213 533.181,168.1 533.694,168.925C534.206,169.75 535.137,170.75 536.487,171.925C538.212,173.425 539.4,174.788 540.05,176.012C540.7,177.238 541.025,178.675 541.025,180.325C541.025,182.475 540.494,184.125 539.431,185.275C538.369,186.425 536.825,187 534.8,187ZM546.612,164.125L542.3,164.125L542.3,160.375L555.05,160.375L555.05,164.125L550.737,164.125L550.737,186.625L546.612,186.625L546.612,164.125ZM557.037,160.375L568.287,160.375L568.287,164.125L561.162,164.125L561.162,171.063L566.825,171.063L566.825,174.812L561.162,174.812L561.162,182.875L568.287,182.875L568.287,186.625L557.037,186.625L557.037,160.375ZM570.65,160.375L576.537,160.375L579.162,179.163L579.237,179.163L581.862,160.375L587.75,160.375L587.75,186.625L583.85,186.625L583.85,166.75L583.775,166.75L580.775,186.625L577.325,186.625L574.325,166.75L574.25,166.75L574.25,186.625L570.65,186.625L570.65,160.375Z" style="fill:white;"/>
    </g>
</svg>
