<?xml version="1.0" encoding="UTF-8" standalone="no"?>
<!DOCTYPE svg PUBLIC "-//W3C//DTD SVG 1.1//EN" "http://www.w3.org/Graphics/SVG/1.1/DTD/svg11.dtd">
<svg width="100%" height="100%" viewBox="0 0 1800 592" version="1.1" xmlns="http://www.w3.org/2000/svg" xmlns:xlink="http://www.w3.org/1999/xlink" xml:space="preserve" xmlns:serif="http://www.serif.com/" style="fill-rule:evenodd;clip-rule:evenodd;stroke-linejoin:round;stroke-miterlimit:2;">
    <g transform="matrix(0.915692,0,0,0.931098,-883.124,-1488.92)">
        <path d="M2801.85,1725.21L2312.03,1725.21L2312.03,2080.91L2173.36,2080.91L2173.36,1725.21L1715.37,1725.21L1715.37,1599.1L2801.85,1599.1L2801.85,1599.25C2802.08,1599.15 2802.33,1599.1 2802.59,1599.1C2872.43,1599.1 2929.38,1655.53 2930.15,1725.21L2930.16,1725.21L2930.16,2041.16C2930.16,2147.74 2842.24,2234.15 2733.8,2234.15L1877.62,2234.15L1877.62,2108.05L2700.08,2108.05C2756.29,2108.05 2801.85,2063.26 2801.85,2008.01L2801.85,1725.21L2836.12,1725.21C2835.37,1707.36 2820.62,1693.05 2802.59,1693.05C2802.33,1693.05 2802.08,1693 2801.85,1692.9L2801.85,1725.21ZM2801.85,1619.43L2801.85,1635.99C2802.08,1635.89 2802.33,1635.84 2802.59,1635.84C2852.18,1635.84 2892.64,1675.79 2893.41,1725.21L2909.62,1725.21C2908.84,1666.84 2861.13,1619.58 2802.59,1619.58C2802.33,1619.58 2802.08,1619.53 2801.85,1619.43ZM2801.85,1656.16L2801.85,1672.73C2802.08,1672.63 2802.33,1672.58 2802.59,1672.58C2831.93,1672.58 2855.9,1696.05 2856.66,1725.21L2872.87,1725.21C2872.1,1687.09 2840.88,1656.31 2802.59,1656.31C2802.33,1656.31 2802.08,1656.26 2801.85,1656.16ZM1693.03,1725.21L1235.03,1725.21L1235.03,2008.02C1235.03,2063.26 1280.6,2108.05 1336.8,2108.05L1693.03,2108.05L1693.03,2234.15L1292.71,2234.15C1184.27,2234.15 1096.36,2147.74 1096.36,2041.16L1096.36,1725.21L964.433,1725.21L964.433,1599.1L1693.03,1599.1L1693.03,1725.21ZM1266.85,1752.34L1693.03,1752.34L1693.03,2080.91L1554.35,2080.91L1554.35,1878.45L1405.53,1878.45L1405.53,1937.36C1405.53,1947 1413.47,1954.8 1423.28,1954.8L1530.77,1954.8L1530.77,2080.91L1350.32,2080.91C1304.22,2080.91 1266.85,2044.19 1266.85,1998.87L1266.85,1752.34ZM1715.37,1752.34L2141.55,1752.34L2141.55,1998.87C2141.55,2044.19 2104.17,2080.91 2058.07,2080.91L1877.62,2080.91L1877.62,1954.8L1985.11,1954.8C1994.92,1954.8 2002.87,1947 2002.87,1937.36L2002.87,1878.45L1854.05,1878.45L1854.05,2234.15L1715.37,2234.15L1715.37,1752.34ZM2770.03,1752.34L2770.03,1998.87C2770.03,2044.19 2732.66,2080.91 2686.57,2080.91L2427.32,2080.91C2381.23,2080.91 2343.85,2044.19 2343.85,1998.87L2343.85,1752.34L2770.03,1752.34ZM2631.35,1878.45L2482.53,1878.45L2482.53,1937.36C2482.53,1947 2490.48,1954.8 2500.28,1954.8L2613.61,1954.8C2623.41,1954.8 2631.35,1947 2631.35,1937.36L2631.35,1878.45Z"/>
    </g>
</svg>
